<svg width="14" height="14" viewBox="0 0 14 14" fill="none" xmlns="http://www.w3.org/2000/svg">
<path d="M9.80002 3.49998H12.6V4.66665H11.48V12.25C11.48 12.4133 11.4259 12.5514 11.3176 12.6641C11.2094 12.7769 11.0768 12.8333 10.92 12.8333H3.08002C2.92322 12.8333 2.79069 12.7769 2.68242 12.6641C2.57416 12.5514 2.52002 12.4133 2.52002 12.25V4.66665H1.40002V3.49998H4.20002V1.74998C4.20002 1.58665 4.25416 1.44859 4.36242 1.33581C4.47069 1.22304 4.60322 1.16665 4.76002 1.16665H9.24002C9.39682 1.16665 9.52936 1.22304 9.63762 1.33581C9.74589 1.44859 9.80002 1.58665 9.80002 1.74998V3.49998ZM10.36 4.66665H3.64002V11.6666H10.36V4.66665ZM5.32002 6.41665H6.44002V9.91665H5.32002V6.41665ZM7.56002 6.41665H8.68002V9.91665H7.56002V6.41665ZM5.32002 2.33331V3.49998H8.68002V2.33331H5.32002Z" fill="#6B7280"/>
</svg>
