<svg width="25" height="25" viewBox="0 0 25 25" fill="none" xmlns="http://www.w3.org/2000/svg">
<path d="M12.375 6.04574C12.9758 5.50678 13.6647 5.1518 14.4415 4.98078C15.2184 4.80977 15.9849 4.8279 16.7411 5.0352C17.5283 5.25285 18.2094 5.6493 18.7843 6.22453C19.3592 6.79977 19.7554 7.48124 19.9729 8.26895C20.18 9.02556 20.1982 9.78995 20.0273 10.5621C19.8564 11.3343 19.5016 12.0261 18.9629 12.6376L12.375 19.2295L5.78715 12.6376C5.24851 12.0261 4.89374 11.3343 4.72283 10.5621C4.55191 9.78995 4.57004 9.02556 4.77721 8.26895C4.99473 7.48124 5.39353 6.79977 5.97359 6.22453C6.55366 5.6493 7.23213 5.25285 8.00901 5.0352C8.76517 4.8279 9.53168 4.80977 10.3086 4.98078C11.0854 5.1518 11.7743 5.50678 12.375 6.04574ZM17.6733 7.32059C17.2901 6.9371 16.8447 6.67539 16.3371 6.53547C15.8295 6.39555 15.3168 6.38259 14.7989 6.4966C14.281 6.61061 13.82 6.849 13.4161 7.21176L12.375 8.14457L11.334 7.21176C10.9404 6.849 10.4821 6.61061 9.95896 6.4966C9.43587 6.38259 8.92054 6.39555 8.41298 6.53547C7.90542 6.67539 7.46002 6.9371 7.07676 7.32059C6.6935 7.70408 6.42936 8.14975 6.28434 8.65762C6.13933 9.16548 6.1212 9.67594 6.22996 10.189C6.33873 10.702 6.5692 11.1607 6.92138 11.5649L12.375 17.0374L17.8287 11.5649C18.1809 11.1607 18.4114 10.702 18.5201 10.189C18.6289 9.67594 18.6108 9.16548 18.4657 8.65762C18.3207 8.14975 18.0566 7.70408 17.6733 7.32059Z" fill="#6B7280"/>
</svg>
