<svg width="25" height="25" viewBox="0 0 25 25" fill="none" xmlns="http://www.w3.org/2000/svg">
<path d="M12.375 6.0458C12.9758 5.50684 13.6647 5.15186 14.4415 4.98084C15.2184 4.80983 15.9849 4.82796 16.7411 5.03526C17.5283 5.25291 18.2094 5.64936 18.7843 6.22459C19.3592 6.79983 19.7554 7.4813 19.9729 8.26901C20.18 9.02562 20.1982 9.79001 20.0273 10.5622C19.8564 11.3343 19.5016 12.0262 18.9629 12.6377L12.375 19.2296L5.78715 12.6377C5.24851 12.0262 4.89374 11.3343 4.72283 10.5622C4.55191 9.79001 4.57004 9.02562 4.77721 8.26901C4.99473 7.4813 5.39353 6.79983 5.97359 6.22459C6.55366 5.64936 7.23213 5.25291 8.00901 5.03526C8.76517 4.82796 9.53168 4.80983 10.3086 4.98084C11.0854 5.15186 11.7743 5.50684 12.375 6.0458Z" fill="#4F46E5"/>
</svg>
