<svg width="25" height="25" viewBox="0 0 25 25" fill="none" xmlns="http://www.w3.org/2000/svg">
<path d="M13.6441 17.7681H18.3053V10.7564L12.8672 6.52768L7.42906 10.7564V17.7681H12.0903V13.104H13.6441V17.7681ZM19.8591 18.5454C19.8591 18.7631 19.784 18.947 19.6338 19.0973C19.4836 19.2476 19.2997 19.3228 19.0822 19.3228H6.65218C6.43466 19.3228 6.25079 19.2476 6.1006 19.0973C5.9504 18.947 5.87531 18.7631 5.87531 18.5454V10.3833C5.87531 10.1242 5.97371 9.91689 6.17052 9.76143L12.3855 4.92635C12.5305 4.8227 12.6911 4.77088 12.8672 4.77088C13.0433 4.77088 13.2038 4.8227 13.3488 4.92635L19.5638 9.76143C19.7607 9.91689 19.8591 10.1242 19.8591 10.3833V18.5454Z" fill="#6B7280"/>
</svg>
