<svg width="20" height="20" viewBox="0 0 20 20" fill="none" xmlns="http://www.w3.org/2000/svg">
<path d="M16.8669 16.5454C16.8669 16.7631 16.7918 16.947 16.6416 17.0973C16.4914 17.2476 16.3075 17.3228 16.09 17.3228H3.66C3.44248 17.3228 3.25861 17.2476 3.10842 17.0973C2.95822 16.947 2.88313 16.7631 2.88313 16.5454V8.3833C2.88313 8.12419 2.98153 7.91689 3.17834 7.76143L9.39334 2.92635C9.53835 2.8227 9.69891 2.77088 9.875 2.77088C10.0511 2.77088 10.2116 2.8227 10.3567 2.92635L16.5717 7.76143C16.7685 7.91689 16.8669 8.12419 16.8669 8.3833V16.5454ZM9.09813 11.104V15.7681H10.6519V11.104H9.09813Z" fill="#4F46E5"/>
</svg>
