<svg width="20" height="19" viewBox="0 0 20 19" fill="none" xmlns="http://www.w3.org/2000/svg">
<path d="M10.2344 2.2466C11.3044 2.2466 12.3244 2.4066 13.2944 2.7266C14.2444 3.0366 15.0819 3.4741 15.8069 4.0391C16.5319 4.6041 17.0944 5.2516 17.4944 5.9816C17.9044 6.7516 18.1094 7.5516 18.1094 8.3816C18.1094 9.2116 17.9044 10.0066 17.4944 10.7666C17.0944 11.4966 16.5319 12.1466 15.8069 12.7166C15.0819 13.2866 14.2444 13.7266 13.2944 14.0366C12.3244 14.3566 11.3044 14.5166 10.2344 14.5166C9.80437 14.5166 9.37437 14.4866 8.94437 14.4266L5.62937 16.6016C5.43937 16.7016 5.31437 16.7316 5.25437 16.6916C5.19437 16.6516 5.20437 16.5166 5.28437 16.2866L5.94437 13.5266C4.84437 12.9666 3.97937 12.2416 3.34937 11.3516C2.68937 10.4316 2.35938 9.4416 2.35938 8.3816C2.35938 7.5516 2.56437 6.7516 2.97437 5.9816C3.37437 5.2516 3.93687 4.6041 4.66187 4.0391C5.38687 3.4741 6.22437 3.0366 7.17437 2.7266C8.14437 2.4066 9.16437 2.2466 10.2344 2.2466ZM14.6594 8.2766L15.7694 7.2116C15.8394 7.1516 15.8744 7.0716 15.8744 6.9716C15.8744 6.8716 15.8419 6.7866 15.7769 6.7166C15.7119 6.6466 15.6294 6.6116 15.5294 6.6116C15.4294 6.6116 15.3444 6.6416 15.2744 6.7016L13.8344 8.1116V6.9566C13.8344 6.8566 13.7994 6.7716 13.7294 6.7016C13.6594 6.6316 13.5744 6.5966 13.4744 6.5966C13.3744 6.5966 13.2894 6.6316 13.2194 6.7016C13.1494 6.7716 13.1144 6.8566 13.1144 6.9566V8.8616C13.1044 8.9216 13.1044 8.9816 13.1144 9.0416V10.1216C13.1144 10.2116 13.1494 10.2916 13.2194 10.3616C13.2894 10.4316 13.3744 10.4666 13.4744 10.4666C13.5744 10.4666 13.6594 10.4316 13.7294 10.3616C13.7994 10.2916 13.8344 10.2116 13.8344 10.1216V9.0866L14.1494 8.7866L15.2144 10.3016C15.2844 10.4016 15.3844 10.4516 15.5144 10.4516C15.5844 10.4516 15.6494 10.4316 15.7094 10.3916C15.7894 10.3316 15.8394 10.2541 15.8594 10.1591C15.8794 10.0641 15.8594 9.9766 15.7994 9.8966L14.6594 8.2766ZM12.4394 9.7316H11.3444V6.9566C11.3444 6.8666 11.3119 6.7866 11.2469 6.7166C11.1819 6.6466 11.0994 6.6116 10.9994 6.6116C10.8994 6.6116 10.8144 6.6466 10.7444 6.7166C10.6744 6.7866 10.6394 6.8666 10.6394 6.9566V10.0766C10.6394 10.1766 10.6744 10.2616 10.7444 10.3316C10.8144 10.4016 10.8994 10.4366 10.9994 10.4366H12.4394C12.5394 10.4366 12.6244 10.4016 12.6944 10.3316C12.7644 10.2616 12.7994 10.1791 12.7994 10.0841C12.7994 9.9891 12.7644 9.9066 12.6944 9.8366C12.6244 9.7666 12.5394 9.7316 12.4394 9.7316ZM8.05937 8.9066L8.56937 7.6316L9.04937 8.9066H8.05937ZM9.94937 9.2816C9.94937 9.2716 9.94937 9.2666 9.94937 9.2666C9.94937 9.1766 9.91437 9.0966 9.84437 9.0266L9.06437 6.9266C9.03437 6.8166 8.97437 6.7291 8.88437 6.6641C8.79437 6.5991 8.69687 6.5666 8.59187 6.5666C8.48687 6.5666 8.39187 6.5966 8.30687 6.6566C8.22187 6.7166 8.15437 6.7966 8.10437 6.8966L6.85937 9.9566C6.81937 10.0466 6.81937 10.1366 6.85937 10.2266C6.89937 10.3166 6.96437 10.3816 7.05437 10.4216C7.14437 10.4616 7.23437 10.4616 7.32437 10.4216C7.41437 10.3816 7.47937 10.3166 7.51937 10.2266L7.75937 9.6116H9.31937L9.54437 10.2116C9.56437 10.2816 9.60687 10.3391 9.67187 10.3841C9.73687 10.4291 9.80437 10.4516 9.87437 10.4516C9.91437 10.4516 9.95437 10.4416 9.99437 10.4216C10.0844 10.3916 10.1494 10.3316 10.1894 10.2416C10.2294 10.1516 10.2344 10.0616 10.2044 9.9716L9.94937 9.2816ZM7.45937 6.9716C7.45937 6.8716 7.42437 6.7866 7.35437 6.7166C7.28437 6.6466 7.19937 6.6116 7.09937 6.6116H4.66937C4.56937 6.6116 4.48437 6.6466 4.41437 6.7166C4.34437 6.7866 4.30937 6.8691 4.30937 6.9641C4.30937 7.0591 4.34437 7.1416 4.41437 7.2116C4.48437 7.2816 4.56937 7.3166 4.66937 7.3166H5.53937V10.1216C5.53937 10.2216 5.57437 10.3066 5.64437 10.3766C5.71437 10.4466 5.79687 10.4816 5.89187 10.4816C5.98687 10.4816 6.06937 10.4466 6.13937 10.3766C6.20937 10.3066 6.24437 10.2216 6.24437 10.1216V7.3166H7.09937C7.19937 7.3166 7.28437 7.2816 7.35437 7.2116C7.42437 7.1416 7.45937 7.0616 7.45937 6.9716Z" fill="black"/>
</svg>
