<svg width="20" height="22" viewBox="0 0 20 22" fill="none" xmlns="http://www.w3.org/2000/svg">
<path d="M10 16.8333C9.20696 16.8333 8.4489 16.6817 7.72582 16.3783C7.03385 16.0828 6.41768 15.6647 5.87732 15.1242C5.33696 14.5836 4.91905 13.9672 4.6236 13.275C4.32037 12.5517 4.16876 11.7933 4.16876 11C4.16876 10.2067 4.32037 9.44833 4.6236 8.725C4.91905 8.03278 5.33696 7.41639 5.87732 6.87583C6.41768 6.33528 7.03385 5.91722 7.72582 5.62167C8.4489 5.31833 9.20696 5.16667 10 5.16667C10.7931 5.16667 11.5511 5.31833 12.2742 5.62167C12.9662 5.91722 13.5823 6.33528 14.1227 6.87583C14.6631 7.41639 15.081 8.03278 15.3764 8.725C15.6796 9.44833 15.8313 10.2067 15.8313 11C15.8313 11.7933 15.6796 12.5517 15.3764 13.275C15.081 13.9672 14.6631 14.5836 14.1227 15.1242C13.5823 15.6647 12.9662 16.0828 12.2742 16.3783C11.5511 16.6817 10.7931 16.8333 10 16.8333ZM10 15.6667C10.8475 15.6667 11.6328 15.4528 12.3558 15.025C13.0556 14.6128 13.6115 14.0567 14.0236 13.3567C14.4512 12.6333 14.665 11.8478 14.665 11C14.665 10.1522 14.4512 9.36667 14.0236 8.64333C13.6115 7.94333 13.0556 7.38722 12.3558 6.975C11.6328 6.54722 10.8475 6.33333 10 6.33333C9.15254 6.33333 8.36726 6.54722 7.64419 6.975C6.94444 7.38722 6.38852 7.94333 5.97645 8.64333C5.54882 9.36667 5.33501 10.1522 5.33501 11C5.33501 11.8478 5.54882 12.6333 5.97645 13.3567C6.38852 14.0567 6.94444 14.6128 7.64419 15.025C8.36726 15.4528 9.15254 15.6667 10 15.6667ZM10 10.1717L11.6444 8.52667L12.4725 9.355L10.828 11L12.4725 12.645L11.6444 13.4733L10 11.8283L8.3556 13.4733L7.52756 12.645L9.17197 11L7.52756 9.355L8.3556 8.52667L10 10.1717Z" fill="#9CA3AF"/>
</svg>
