<svg width="32" height="32" viewBox="0 0 32 32" fill="none" xmlns="http://www.w3.org/2000/svg">
<path d="M16 9.99891C16.6008 9.45995 17.2896 9.10496 18.0665 8.93394C18.8433 8.76293 19.6099 8.78107 20.366 8.98836C21.1533 9.20601 21.8343 9.60246 22.4092 10.1777C22.9841 10.7529 23.3803 11.4344 23.5978 12.2221C23.805 12.9787 23.8231 13.7431 23.6522 14.5153C23.4813 15.2874 23.1265 15.9793 22.5879 16.5908L16 23.1827L9.41208 16.5908C8.87345 15.9793 8.51868 15.2874 8.34777 14.5153C8.17685 13.7431 8.19498 12.9787 8.40215 12.2221C8.61967 11.4344 9.01847 10.7529 9.59853 10.1777C10.1786 9.60246 10.8571 9.20601 11.6339 8.98836C12.3901 8.78107 13.1566 8.76293 13.9335 8.93394C14.7104 9.10496 15.3992 9.45995 16 9.99891ZM21.2983 11.2737C20.915 10.8903 20.4696 10.6286 19.962 10.4886C19.4545 10.3487 18.9418 10.3358 18.4238 10.4498C17.9059 10.5638 17.445 10.8022 17.041 11.1649L16 12.0977L14.959 11.1649C14.5654 10.8022 14.107 10.5638 13.5839 10.4498C13.0608 10.3358 12.5455 10.3487 12.0379 10.4886C11.5304 10.6286 11.085 10.8903 10.7017 11.2737C10.3184 11.6572 10.0543 12.1029 9.90928 12.6108C9.76427 13.1186 9.74614 13.6291 9.8549 14.1421C9.96367 14.6552 10.1941 15.1138 10.5463 15.518L16 20.9905L21.4536 15.518C21.8058 15.1138 22.0363 14.6552 22.1451 14.1421C22.2538 13.6291 22.2357 13.1186 22.0907 12.6108C21.9457 12.1029 21.6815 11.6572 21.2983 11.2737Z" fill="#1F2937"/>
</svg>
