<svg width="23" height="20" viewBox="0 0 23 20" fill="none" xmlns="http://www.w3.org/2000/svg">
<path d="M7.43167 5.42334C7.9526 4.97223 8.53573 4.62223 9.18105 4.37334C9.84193 4.12445 10.53 4.00001 11.2453 4.00001C12.0384 4.00001 12.7964 4.15167 13.5195 4.45501C14.2115 4.75056 14.8276 5.16862 15.368 5.70917C15.9084 6.24973 16.3263 6.86612 16.6217 7.55834C16.9249 8.28167 17.0766 9.04001 17.0766 9.83334C17.0766 10.4478 16.9833 11.0428 16.7967 11.6183C16.6178 12.1783 16.3574 12.6994 16.0153 13.1817L14.1609 9.83334H15.9103C15.9103 8.98556 15.6965 8.20001 15.2689 7.47667C14.8568 6.77667 14.3009 6.22056 13.6011 5.80834C12.8781 5.38056 12.0928 5.16667 11.2453 5.16667C10.6311 5.16667 10.0402 5.28334 9.47261 5.51667C8.92836 5.74223 8.44243 6.05723 8.0148 6.46167L7.43167 5.42334ZM15.0589 14.2433C14.538 14.6944 13.9549 15.0444 13.3096 15.2933C12.6487 15.5422 11.9606 15.6667 11.2453 15.6667C10.4523 15.6667 9.6942 15.515 8.97112 15.2117C8.27915 14.9161 7.66298 14.4981 7.12262 13.9575C6.58226 13.4169 6.16435 12.8006 5.8689 12.1083C5.56567 11.385 5.41406 10.6267 5.41406 9.83334C5.41406 9.21889 5.50736 8.62389 5.69396 8.04834C5.87279 7.48834 6.13325 6.96723 6.47535 6.48501L8.32969 9.83334H6.58031C6.58031 10.6811 6.79412 11.4667 7.22175 12.19C7.63382 12.89 8.18974 13.4461 8.88949 13.8583C9.61256 14.2861 10.3978 14.5 11.2453 14.5C11.8595 14.5 12.4504 14.3833 13.018 14.15C13.5623 13.9244 14.0482 13.6094 14.4758 13.205L15.0589 14.2433Z" fill="#4B5563"/>
</svg>
