<svg width="32" height="32" viewBox="0 0 32 32" fill="none" xmlns="http://www.w3.org/2000/svg">
<path d="M17.2507 19.9023L13.9878 18.1299C13.6978 18.4305 13.3559 18.6689 12.9623 18.8451C12.5687 19.0213 12.1544 19.1094 11.7193 19.1094C11.16 19.1094 10.642 18.9695 10.1656 18.6896C9.68908 18.4098 9.311 18.0315 9.03133 17.5547C8.75165 17.0779 8.61182 16.5597 8.61182 16C8.61182 15.4403 8.75165 14.9221 9.03133 14.4453C9.311 13.9685 9.68908 13.5902 10.1656 13.3104C10.642 13.0305 11.16 12.8906 11.7193 12.8906C12.1544 12.8906 12.5687 12.9787 12.9623 13.1549C13.3559 13.3311 13.6978 13.5695 13.9878 13.8701L17.2507 12.0977C17.1885 11.849 17.1574 11.5951 17.1574 11.3359C17.1574 10.7762 17.2973 10.258 17.577 9.78125C17.8566 9.30448 18.2347 8.92617 18.7112 8.64633C19.1877 8.36648 19.7056 8.22656 20.2649 8.22656C20.8243 8.22656 21.3422 8.36648 21.8187 8.64633C22.2952 8.92617 22.6733 9.30448 22.9529 9.78125C23.2326 10.258 23.3724 10.7762 23.3724 11.3359C23.3724 11.8956 23.2326 12.4139 22.9529 12.8906C22.6733 13.3674 22.2952 13.7457 21.8187 14.0255C21.3422 14.3054 20.8243 14.4453 20.2649 14.4453C19.8299 14.4453 19.4156 14.3572 19.0219 14.181C18.6283 14.0048 18.2865 13.7664 17.9965 13.4659L14.7336 15.2382C14.7957 15.487 14.8268 15.7409 14.8268 16C14.8268 16.2591 14.7957 16.513 14.7336 16.7618L17.9965 18.5341C18.2865 18.2336 18.6283 17.9952 19.0219 17.819C19.4156 17.6428 19.8299 17.5547 20.2649 17.5547C20.8243 17.5547 21.3422 17.6946 21.8187 17.9745C22.2952 18.2543 22.6733 18.6326 22.9529 19.1094C23.2326 19.5861 23.3724 20.1044 23.3724 20.6641C23.3724 21.2237 23.2326 21.742 22.9529 22.2188C22.6733 22.6955 22.2952 23.0738 21.8187 23.3537C21.3422 23.6335 20.8243 23.7734 20.2649 23.7734C19.7056 23.7734 19.1877 23.6335 18.7112 23.3537C18.2347 23.0738 17.8566 22.6955 17.577 22.2188C17.2973 21.742 17.1574 21.2237 17.1574 20.6641C17.1574 20.4049 17.1885 20.151 17.2507 19.9023ZM11.7193 17.5547C11.999 17.5547 12.2579 17.4847 12.4962 17.3448C12.7344 17.2049 12.9235 17.0157 13.0633 16.7773C13.2031 16.539 13.2731 16.2798 13.2731 16C13.2731 15.7202 13.2031 15.461 13.0633 15.2227C12.9235 14.9843 12.7344 14.7951 12.4962 14.6552C12.2579 14.5153 11.999 14.4453 11.7193 14.4453C11.4396 14.4453 11.1807 14.5153 10.9424 14.6552C10.7042 14.7951 10.5152 14.9843 10.3753 15.2227C10.2355 15.461 10.1656 15.7202 10.1656 16C10.1656 16.2798 10.2355 16.539 10.3753 16.7773C10.5152 17.0157 10.7042 17.2049 10.9424 17.3448C11.1807 17.4847 11.4396 17.5547 11.7193 17.5547ZM20.2649 12.8906C20.5446 12.8906 20.8036 12.8207 21.0418 12.6807C21.2801 12.5408 21.4691 12.3517 21.6089 12.1133C21.7488 11.8749 21.8187 11.6158 21.8187 11.3359C21.8187 11.0561 21.7488 10.797 21.6089 10.5586C21.4691 10.3202 21.2801 10.1311 21.0418 9.99113C20.8036 9.85121 20.5446 9.78125 20.2649 9.78125C19.9853 9.78125 19.7263 9.85121 19.4881 9.99113C19.2498 10.1311 19.0608 10.3202 18.9209 10.5586C18.7811 10.797 18.7112 11.0561 18.7112 11.3359C18.7112 11.6158 18.7811 11.8749 18.9209 12.1133C19.0608 12.3517 19.2498 12.5408 19.4881 12.6807C19.7263 12.8207 19.9853 12.8906 20.2649 12.8906ZM20.2649 22.2188C20.5446 22.2188 20.8036 22.1488 21.0418 22.0089C21.2801 21.8689 21.4691 21.6798 21.6089 21.4414C21.7488 21.203 21.8187 20.9439 21.8187 20.6641C21.8187 20.3842 21.7488 20.1251 21.6089 19.8867C21.4691 19.6483 21.2801 19.4592 21.0418 19.3193C20.8036 19.1793 20.5446 19.1094 20.2649 19.1094C19.9853 19.1094 19.7263 19.1793 19.4881 19.3193C19.2498 19.4592 19.0608 19.6483 18.9209 19.8867C18.7811 20.1251 18.7112 20.3842 18.7112 20.6641C18.7112 20.9439 18.7811 21.203 18.9209 21.4414C19.0608 21.6798 19.2498 21.8689 19.4881 22.0089C19.7263 22.1488 19.9853 22.2188 20.2649 22.2188Z" fill="#1F2937"/>
</svg>
