<svg width="25" height="25" viewBox="0 0 25 25" fill="none" xmlns="http://www.w3.org/2000/svg">
<path d="M17.193 15.5138L20.518 18.8409L19.4149 19.9447L16.0899 16.6177C15.4787 17.1048 14.8106 17.4779 14.0855 17.737C13.319 18.0065 12.5318 18.1413 11.7238 18.1413C10.4601 18.1413 9.28444 17.8251 8.19681 17.1929C7.14026 16.571 6.30642 15.7315 5.69527 14.6743C5.05306 13.586 4.73195 12.4096 4.73195 11.1452C4.73195 9.88069 5.05306 8.70431 5.69527 7.61603C6.30642 6.55884 7.14026 5.72449 8.19681 5.11298C9.28444 4.47038 10.4601 4.14908 11.7238 4.14908C12.9875 4.14908 14.1632 4.47038 15.2508 5.11298C16.3074 5.72449 17.1464 6.55884 17.7679 7.61603C18.3998 8.70431 18.7157 9.88069 18.7157 11.1452C18.7157 11.9536 18.581 12.7413 18.3117 13.5083C18.0528 14.2338 17.6799 14.9023 17.193 15.5138ZM15.6237 14.9386C16.1106 14.4411 16.4887 13.8711 16.758 13.2285C17.0273 12.5651 17.1619 11.8707 17.1619 11.1452C17.1619 10.1605 16.9133 9.24327 16.4161 8.39337C15.9397 7.57457 15.2923 6.92679 14.474 6.45001C13.6246 5.95251 12.7079 5.70376 11.7238 5.70376C10.7398 5.70376 9.82307 5.95251 8.97369 6.45001C8.15538 6.92679 7.50798 7.57457 7.0315 8.39337C6.5343 9.24327 6.2857 10.1605 6.2857 11.1452C6.2857 12.1298 6.5343 13.0471 7.0315 13.897C7.50798 14.7158 8.15538 15.3636 8.97369 15.8403C9.82307 16.3378 10.7398 16.5866 11.7238 16.5866C12.4489 16.5866 13.1429 16.4518 13.8058 16.1824C14.4481 15.9129 15.0178 15.5346 15.515 15.0474L15.6237 14.9386Z" fill="#6B7280"/>
</svg>
