<svg width="25" height="25" viewBox="0 0 25 25" fill="none" xmlns="http://www.w3.org/2000/svg">
<path d="M5.90991 20.209C5.90991 19.0792 6.19477 18.0324 6.76447 17.0685C7.31347 16.1357 8.05409 15.3946 8.98634 14.8453C9.94966 14.2753 10.9959 13.9902 12.1249 13.9902C13.254 13.9902 14.3002 14.2753 15.2635 14.8453C16.1957 15.3946 16.9364 16.1357 17.4853 17.0685C18.0551 18.0324 18.3399 19.0792 18.3399 20.209H16.7862C16.7862 19.3695 16.5738 18.5869 16.1491 17.8614C15.7348 17.1566 15.1754 16.5969 14.4711 16.1823C13.746 15.7574 12.9639 15.5449 12.1249 15.5449C11.2859 15.5449 10.5038 15.7574 9.77875 16.1823C9.07438 16.5969 8.51503 17.1566 8.1007 17.8614C7.67601 18.5869 7.46366 19.3695 7.46366 20.209H5.90991ZM12.1249 13.2129C11.2755 13.2129 10.4935 13.0004 9.77875 12.5755C9.07438 12.1609 8.51503 11.6012 8.1007 10.8964C7.67601 10.1812 7.46366 9.39872 7.46366 8.54883C7.46366 7.69893 7.67601 6.91641 8.1007 6.20125C8.51503 5.49646 9.07438 4.93677 9.77875 4.52219C10.4935 4.09724 11.2755 3.88477 12.1249 3.88477C12.9743 3.88477 13.7563 4.09724 14.4711 4.52219C15.1754 4.93677 15.7348 5.49646 16.1491 6.20125C16.5738 6.91641 16.7862 7.69893 16.7862 8.54883C16.7862 9.39872 16.5738 10.1812 16.1491 10.8964C15.7348 11.6012 15.1754 12.1609 14.4711 12.5755C13.7563 13.0004 12.9743 13.2129 12.1249 13.2129ZM12.1249 11.6582C12.6843 11.6582 13.2022 11.5183 13.6787 11.2384C14.1551 10.9586 14.5332 10.5803 14.8129 10.1035C15.0926 9.62675 15.2324 9.10852 15.2324 8.54883C15.2324 7.98914 15.0926 7.47091 14.8129 6.99414C14.5332 6.51737 14.1551 6.13906 13.6787 5.85922C13.2022 5.57938 12.6843 5.43945 12.1249 5.43945C11.5656 5.43945 11.0476 5.57938 10.5712 5.85922C10.0947 6.13906 9.7166 6.51737 9.43692 6.99414C9.15725 7.47091 9.01741 7.98914 9.01741 8.54883C9.01741 9.10852 9.15725 9.62675 9.43692 10.1035C9.7166 10.5803 10.0947 10.9586 10.5712 11.2384C11.0476 11.5183 11.5656 11.6582 12.1249 11.6582Z" fill="#6B7280"/>
</svg>
