<svg width="25" height="25" viewBox="0 0 25 25" fill="none" xmlns="http://www.w3.org/2000/svg">
<path d="M5.90991 20.209C5.90991 19.0792 6.19477 18.0324 6.76447 17.0685C7.31347 16.1357 8.05409 15.3946 8.98634 14.8453C9.94966 14.2753 10.9959 13.9902 12.1249 13.9902C13.254 13.9902 14.3002 14.2753 15.2635 14.8453C16.1957 15.3946 16.9364 16.1357 17.4853 17.0685C18.0551 18.0324 18.3399 19.0792 18.3399 20.209H5.90991ZM12.1249 13.2129C11.2755 13.2129 10.4935 13.0004 9.77875 12.5755C9.07438 12.1609 8.51503 11.6012 8.1007 10.8964C7.67601 10.1812 7.46366 9.39872 7.46366 8.54883C7.46366 7.69893 7.67601 6.91641 8.1007 6.20125C8.51503 5.49646 9.07438 4.93677 9.77875 4.52219C10.4935 4.09724 11.2755 3.88477 12.1249 3.88477C12.9743 3.88477 13.7563 4.09724 14.4711 4.52219C15.1754 4.93677 15.7348 5.49646 16.1491 6.20125C16.5738 6.91641 16.7862 7.69893 16.7862 8.54883C16.7862 9.39872 16.5738 10.1812 16.1491 10.8964C15.7348 11.6012 15.1754 12.1609 14.4711 12.5755C13.7563 13.0004 12.9743 13.2129 12.1249 13.2129Z" fill="#4F46E5"/>
</svg>
